<svg xmlns="http://www.w3.org/2000/svg" xmlns:xlink="http://www.w3.org/1999/xlink" width="1580" height="1058.66"><rect width="1580" height="1058.66" rx="5" ry="5" class="a"/><svg y="0%" x="0%"><circle cx="20" cy="20" r="6" fill="#ff5f58"/><circle cx="40" cy="20" r="6" fill="#ffbd2e"/><circle cx="60" cy="20" r="6" fill="#18c132"/></svg><svg height="998.66" viewBox="0 0 154 99.866" width="1540" x="15" xmlns="http://www.w3.org/2000/svg" xmlns:xlink="http://www.w3.org/1999/xlink" y="50"><style>@keyframes o{0%{transform:translateX(0)}1.56%{transform:translateX(-154px)}1.6%{transform:translateX(-616px)}7.58%{transform:translateX(-770px)}8.33%{transform:translateX(-924px)}10.26%{transform:translateX(-1078px)}10.65%{transform:translateX(-1232px)}11.36%{transform:translateX(-1386px)}12.72%{transform:translateX(-1540px)}13.32%{transform:translateX(-1694px)}14.29%{transform:translateX(-1848px)}14.82%{transform:translateX(-2002px)}17.51%{transform:translateX(-2156px)}18.2%{transform:translateX(-2310px)}19.84%{transform:translateX(-2464px)}20.46%{transform:translateX(-2618px)}20.71%{transform:translateX(-2772px)}21.2%{transform:translateX(-2926px)}21.71%{transform:translateX(-3080px)}22.2%{transform:translateX(-3234px)}22.53%{transform:translateX(-3388px)}27.33%{transform:translateX(-3542px)}29.21%{transform:translateX(-3696px)}31.98%{transform:translateX(-3850px)}32.85%{transform:translateX(-4004px)}33.94%{transform:translateX(-4158px)}34.86%{transform:translateX(-4312px)}35.85%{transform:translateX(-4466px)}37.05%{transform:translateX(-4620px)}37.09%{transform:translateX(-4774px)}39.46%{transform:translateX(-4928px)}42.2%{transform:translateX(-5082px)}42.63%{transform:translateX(-5236px)}43.3%{transform:translateX(-5390px)}44.47%{transform:translateX(-5544px)}46.25%{transform:translateX(-5698px)}51.85%{transform:translateX(-6006px)}51.86%{transform:translateX(-6160px)}51.9%{transform:translateX(-6622px)}64.45%{transform:translateX(-6776px)}66.26%{transform:translateX(-6930px)}68.4%{transform:translateX(-7238px)}70.23%{transform:translateX(-7392px)}72.64%{transform:translateX(-7854px)}73.48%{transform:translateX(-8008px)}74.31%{transform:translateX(-8162px)}75.14%{transform:translateX(-8316px)}75.97%{transform:translateX(-8470px)}76.8%{transform:translateX(-8624px)}77.63%{transform:translateX(-8778px)}78.47%{transform:translateX(-8932px)}79.3%{transform:translateX(-9086px)}80.13%{transform:translateX(-9240px)}80.96%{transform:translateX(-9394px)}81.79%{transform:translateX(-9548px)}82.63%{transform:translateX(-9702px)}83.46%{transform:translateX(-9856px)}84.29%{transform:translateX(-10010px)}85.12%{transform:translateX(-10164px)}85.95%{transform:translateX(-10318px)}86.79%{transform:translateX(-10472px)}87.61%{transform:translateX(-10626px)}88.44%{transform:translateX(-10780px)}89.28%{transform:translateX(-10934px)}90.01%{transform:translateX(-11088px)}90.02%{transform:translateX(-11396px)}90.11%{transform:translateX(-11704px)}to{transform:translateX(-11858px)}}.a{fill:#282d35}.f{fill:#b9c0cb;white-space:pre}.g{fill:#71bef2}.h,.i,.j,.k{white-space:pre}.i,.j,.k{fill:#71bef2}.j,.k{fill:#b9c0cb}.j{font-weight:700}.k{text-decoration:underline}</style><g font-family="Monaco,Consolas,Menlo,'Bitstream Vera Sans Mono','Powerline Symbols',monospace" font-size="1.67"><defs><symbol id="1">0<text y="1.67" class="f">albus@Hogwarts</text><path class="g" d="M16.032 0h40v2.171h-40z"/><text x="16.032" y="1.67" class="h"> ~/Downloads/hermes_0.1.0_Darwin_arm64</text><text x="56.112" y="1.67" class="i"></text></symbol><symbol id="2">0<text y="1.67" class="f">albus@Hogwarts</text><path class="g" d="M16.032 0h40v2.171h-40z"/><text x="16.032" y="1.67" class="h"> ~/Downloads/hermes_0.1.0_Darwin_arm64</text><text x="56.112" y="1.67" class="i"></text><text x="58.116" y="1.67" class="f">./hermes</text></symbol><symbol id="3">0<text y="1.67" class="f">albus@Hogwarts</text><path class="g" d="M16.032 0h40v2.171h-40z"/><text x="16.032" y="1.67" class="h"> ~/Downloads/hermes_0.1.0_Darwin_arm64</text><text x="56.112" y="1.67" class="i"></text><text x="58.116" y="1.67" class="f">./hermes</text><text x="67.134" y="1.67" class="f">--config</text></symbol><symbol id="4">0<text y="1.67" class="f">albus@Hogwarts</text><path class="g" d="M16.032 0h40v2.171h-40z"/><text x="16.032" y="1.67" class="h"> ~/Downloads/hermes_0.1.0_Darwin_arm64</text><text x="56.112" y="1.67" class="i"></text><text x="58.116" y="1.67" class="f">./hermes</text><text x="67.134" y="1.67" class="f">--config</text><text x="76.152" y="1.67" class="f">~/.pxcdev/hermes-cli/config.json</text></symbol><symbol id="5"><text y="1.67" class="f">Initializing</text><text x="13.026" y="1.67" class="f">the</text><text x="17.034" y="1.67" class="f">SSE</text><text x="21.042" y="1.67" class="f">testing</text><text x="29.058" y="1.67" class="f">tool...</text></symbol><symbol id="6"><text y="1.67" class="f">Use</text><text x="4.008" y="1.67" class="f">the</text><text x="8.016" y="1.67" class="f">arrow</text><text x="14.028" y="1.67" class="f">keys</text><text x="19.038" y="1.67" class="f">to</text><text x="22.044" y="1.67" class="f">navigate:</text><text x="32.064" y="1.67" class="f">↓</text><text x="34.068" y="1.67" class="f">↑</text><text x="36.072" y="1.67" class="f">→</text><text x="38.076" y="1.67" class="f">←</text></symbol><symbol id="7"><text y="1.67" class="i">?</text><text x="2.004" y="1.67" class="f">Select</text><text x="9.018" y="1.67" class="f">the</text><text x="13.026" y="1.67" class="f">Mercure</text><text x="21.042" y="1.67" class="f">Hub</text><text x="25.05" y="1.67" class="f">environment:</text></symbol><symbol id="8"><text x="2.004" y="1.67" class="j">▸</text><text x="4.008" y="1.67" class="k">localhost</text></symbol><symbol id="9"><text x="4.008" y="1.67" class="f">test</text></symbol><symbol id="10"><text x="4.008" y="1.67" class="f">prod</text></symbol><symbol id="11"><text x="4.008" y="1.67" class="f">localhost</text></symbol><symbol id="12"><text x="2.004" y="1.67" class="j">▸</text><text x="4.008" y="1.67" class="k">test</text></symbol><symbol id="13"><text x="2.004" y="1.67" class="j">▸</text><text x="4.008" y="1.67" class="k">prod</text></symbol><symbol id="14"><text y="1.67" style="white-space:pre" fill="#a8cc8c">✔</text><text x="2.004" y="1.67" class="f">localhost</text></symbol><symbol id="15"><text y="1.67" class="f">ENVIRONMENT:</text><text x="13.026" y="1.67" class="f">localhost</text></symbol><symbol id="16"><text y="1.67" class="f">MERCURE</text><text x="8.016" y="1.67" class="f">HUB</text><text x="12.024" y="1.67" class="f">URL:</text><text x="17.034" y="1.67" class="f">https://localhost/.well-known/mercure</text></symbol><symbol id="17"><text y="1.67" class="f">2</text><text x="2.004" y="1.67" class="f">/</text><text x="4.008" y="1.67" class="f">5</text><text x="6.012" y="1.67" class="f">[-----------------------------------------------------&gt;_______________________________________________________________________________]</text><text x="142.284" y="1.67" class="f">40.00%</text><text x="149.298" y="1.67" class="f">?</text><text x="151.302" y="1.67" class="f">p/s</text></symbol><symbol id="18"><text y="1.67" class="f">3</text><text x="2.004" y="1.67" class="f">/</text><text x="4.008" y="1.67" class="f">5</text><text x="6.012" y="1.67" class="f">[-------------------------------------------------------------------------------&gt;_____________________________________________________]</text><text x="142.284" y="1.67" class="f">60.00%</text><text x="149.298" y="1.67" class="f">?</text><text x="151.302" y="1.67" class="f">p/s</text></symbol><symbol id="19"><text y="1.67" class="f">3</text><text x="2.004" y="1.67" class="f">/</text><text x="4.008" y="1.67" class="f">5</text><text x="6.012" y="1.67" class="f">[-------------------------------------------------------------------------------&gt;_____________________________________________________]</text><text x="142.284" y="1.67" class="f">60.00%</text><text x="149.298" y="1.67" class="f">2</text><text x="151.302" y="1.67" class="f">p/s</text></symbol><symbol id="20"><text y="1.67" class="f">5</text><text x="2.004" y="1.67" class="f">/</text><text x="4.008" y="1.67" class="f">5</text><text x="6.012" y="1.67" class="f">[------------------------------------------------------------------------------------------------------------------------------------]</text><text x="141.282" y="1.67" class="f">100.00%</text><text x="149.298" y="1.67" class="f">1</text><text x="151.302" y="1.67" class="f">p/s</text></symbol><symbol id="21"><text y="1.67" class="f">Mercure</text><text x="8.016" y="1.67" class="f">Event:</text><text x="15.03" y="1.67" class="f">{urn:uuid:2126aef9-50eb-4f35-b2d1-e31fa40af262</text><text x="62.124" y="1.67" class="f">test_mercure_events</text><text x="82.164" y="1.67" class="f">mock}</text></symbol><symbol id="22"><text y="1.67" class="f">Mercure</text><text x="8.016" y="1.67" class="f">Event:</text><text x="15.03" y="1.67" class="f">{urn:uuid:68e41d0e-0077-4364-9740-bf87e8a5d716</text><text x="62.124" y="1.67" class="f">test_mercure_events</text><text x="82.164" y="1.67" class="f">mock}</text></symbol><symbol id="23"><text y="1.67" class="f">Mercure</text><text x="8.016" y="1.67" class="f">Event:</text><text x="15.03" y="1.67" class="f">{urn:uuid:be9e5fd5-3a2a-4bb8-a85e-7b86f394a375</text><text x="62.124" y="1.67" class="f">test_mercure_events</text><text x="82.164" y="1.67" class="f">mock}</text></symbol><symbol id="24"><text y="1.67" class="f">Mercure</text><text x="8.016" y="1.67" class="f">Event:</text><text x="15.03" y="1.67" class="f">{urn:uuid:00bd9407-a0b6-4a0e-9774-a6fbd04444fa</text><text x="62.124" y="1.67" class="f">test_mercure_events</text><text x="82.164" y="1.67" class="f">mock}</text></symbol><symbol id="25"><text y="1.67" class="f">Mercure</text><text x="8.016" y="1.67" class="f">Event:</text><text x="15.03" y="1.67" class="f">{urn:uuid:dce12de9-4e14-4ebe-988c-ab857b862709</text><text x="62.124" y="1.67" class="f">test_mercure_events</text><text x="82.164" y="1.67" class="f">mock}</text></symbol><symbol id="a"><path fill="transparent" d="M0 0h154v46H0z"/></symbol><symbol id="b"><path fill="#6f7683" d="M0 0h1.102v2.171H0z"/></symbol></defs><path class="a" d="M0 0h154v99.866H0z"/><g style="animation-duration:24.053547s;animation-iteration-count:infinite;animation-name:o;animation-timing-function:steps(1,end)"><svg width="12012"><svg><use xlink:href="#a"/><use xlink:href="#b" x="-.004"/></svg><svg x="154"><use xlink:href="#a"/><use xlink:href="#b" x="-.004"/></svg><svg x="308"><use xlink:href="#a"/><use xlink:href="#b" x="57.996"/><use xlink:href="#1"/></svg><svg x="462"><use xlink:href="#a"/><use xlink:href="#b" x="57.996"/><use xlink:href="#1"/></svg><svg x="616"><use xlink:href="#a"/><use xlink:href="#b" x="57.996"/><use xlink:href="#1"/></svg><svg x="770"><use xlink:href="#a"/><use xlink:href="#b" x="58.996"/>0<text y="1.67" class="f">albus@Hogwarts</text><path class="g" d="M16.032 0h40v2.171h-40z"/><text x="16.032" y="1.67" class="h"> ~/Downloads/hermes_0.1.0_Darwin_arm64</text><text x="56.112" y="1.67" class="i"></text><text x="58.116" y="1.67" class="f">.</text></svg><svg x="924"><use xlink:href="#a"/><use xlink:href="#b" x="59.996"/>0<text y="1.67" class="f">albus@Hogwarts</text><path class="g" d="M16.032 0h40v2.171h-40z"/><text x="16.032" y="1.67" class="h"> ~/Downloads/hermes_0.1.0_Darwin_arm64</text><text x="56.112" y="1.67" class="i"></text><text x="58.116" y="1.67" class="f">./</text></svg><svg x="1078"><use xlink:href="#a"/><use xlink:href="#b" x="60.996"/>0<text y="1.67" class="f">albus@Hogwarts</text><path class="g" d="M16.032 0h40v2.171h-40z"/><text x="16.032" y="1.67" class="h"> ~/Downloads/hermes_0.1.0_Darwin_arm64</text><text x="56.112" y="1.67" class="i"></text><text x="58.116" y="1.67" class="f">./h</text></svg><svg x="1232"><use xlink:href="#a"/><use xlink:href="#b" x="61.996"/>0<text y="1.67" class="f">albus@Hogwarts</text><path class="g" d="M16.032 0h40v2.171h-40z"/><text x="16.032" y="1.67" class="h"> ~/Downloads/hermes_0.1.0_Darwin_arm64</text><text x="56.112" y="1.67" class="i"></text><text x="58.116" y="1.67" class="f">./he</text></svg><svg x="1386"><use xlink:href="#a"/><use xlink:href="#b" x="62.996"/>0<text y="1.67" class="f">albus@Hogwarts</text><path class="g" d="M16.032 0h40v2.171h-40z"/><text x="16.032" y="1.67" class="h"> ~/Downloads/hermes_0.1.0_Darwin_arm64</text><text x="56.112" y="1.67" class="i"></text><text x="58.116" y="1.67" class="f">./her</text></svg><svg x="1540"><use xlink:href="#a"/><use xlink:href="#b" x="63.996"/>0<text y="1.67" class="f">albus@Hogwarts</text><path class="g" d="M16.032 0h40v2.171h-40z"/><text x="16.032" y="1.67" class="h"> ~/Downloads/hermes_0.1.0_Darwin_arm64</text><text x="56.112" y="1.67" class="i"></text><text x="58.116" y="1.67" class="f">./herm</text></svg><svg x="1694"><use xlink:href="#a"/><use xlink:href="#b" x="64.996"/>0<text y="1.67" class="f">albus@Hogwarts</text><path class="g" d="M16.032 0h40v2.171h-40z"/><text x="16.032" y="1.67" class="h"> ~/Downloads/hermes_0.1.0_Darwin_arm64</text><text x="56.112" y="1.67" class="i"></text><text x="58.116" y="1.67" class="f">./herme</text></svg><svg x="1848"><use xlink:href="#a"/><use xlink:href="#b" x="65.996"/><use xlink:href="#2"/></svg><svg x="2002"><use xlink:href="#a"/><use xlink:href="#b" x="66.996"/><use xlink:href="#2"/></svg><svg x="2156"><use xlink:href="#a"/><use xlink:href="#b" x="67.996"/>0<text y="1.67" class="f">albus@Hogwarts</text><path class="g" d="M16.032 0h40v2.171h-40z"/><text x="16.032" y="1.67" class="h"> ~/Downloads/hermes_0.1.0_Darwin_arm64</text><text x="56.112" y="1.67" class="i"></text><text x="58.116" y="1.67" class="f">./hermes</text><text x="67.134" y="1.67" class="f">-</text></svg><svg x="2310"><use xlink:href="#a"/><use xlink:href="#b" x="68.996"/>0<text y="1.67" class="f">albus@Hogwarts</text><path class="g" d="M16.032 0h40v2.171h-40z"/><text x="16.032" y="1.67" class="h"> ~/Downloads/hermes_0.1.0_Darwin_arm64</text><text x="56.112" y="1.67" class="i"></text><text x="58.116" y="1.67" class="f">./hermes</text><text x="67.134" y="1.67" class="f">--</text></svg><svg x="2464"><use xlink:href="#a"/><use xlink:href="#b" x="69.996"/>0<text y="1.67" class="f">albus@Hogwarts</text><path class="g" d="M16.032 0h40v2.171h-40z"/><text x="16.032" y="1.67" class="h"> ~/Downloads/hermes_0.1.0_Darwin_arm64</text><text x="56.112" y="1.67" class="i"></text><text x="58.116" y="1.67" class="f">./hermes</text><text x="67.134" y="1.67" class="f">--c</text></svg><svg x="2618"><use xlink:href="#a"/><use xlink:href="#b" x="70.996"/>0<text y="1.67" class="f">albus@Hogwarts</text><path class="g" d="M16.032 0h40v2.171h-40z"/><text x="16.032" y="1.67" class="h"> ~/Downloads/hermes_0.1.0_Darwin_arm64</text><text x="56.112" y="1.67" class="i"></text><text x="58.116" y="1.67" class="f">./hermes</text><text x="67.134" y="1.67" class="f">--co</text></svg><svg x="2772"><use xlink:href="#a"/><use xlink:href="#b" x="71.996"/>0<text y="1.67" class="f">albus@Hogwarts</text><path class="g" d="M16.032 0h40v2.171h-40z"/><text x="16.032" y="1.67" class="h"> ~/Downloads/hermes_0.1.0_Darwin_arm64</text><text x="56.112" y="1.67" class="i"></text><text x="58.116" y="1.67" class="f">./hermes</text><text x="67.134" y="1.67" class="f">--con</text></svg><svg x="2926"><use xlink:href="#a"/><use xlink:href="#b" x="72.996"/>0<text y="1.67" class="f">albus@Hogwarts</text><path class="g" d="M16.032 0h40v2.171h-40z"/><text x="16.032" y="1.67" class="h"> ~/Downloads/hermes_0.1.0_Darwin_arm64</text><text x="56.112" y="1.67" class="i"></text><text x="58.116" y="1.67" class="f">./hermes</text><text x="67.134" y="1.67" class="f">--conf</text></svg><svg x="3080"><use xlink:href="#a"/><use xlink:href="#b" x="73.996"/>0<text y="1.67" class="f">albus@Hogwarts</text><path class="g" d="M16.032 0h40v2.171h-40z"/><text x="16.032" y="1.67" class="h"> ~/Downloads/hermes_0.1.0_Darwin_arm64</text><text x="56.112" y="1.67" class="i"></text><text x="58.116" y="1.67" class="f">./hermes</text><text x="67.134" y="1.67" class="f">--confi</text></svg><svg x="3234"><use xlink:href="#a"/><use xlink:href="#b" x="74.996"/><use xlink:href="#3"/></svg><svg x="3388"><use xlink:href="#a"/><use xlink:href="#b" x="75.996"/><use xlink:href="#3"/></svg><svg x="3542"><use xlink:href="#a"/><use xlink:href="#b" x="76.996"/>0<text y="1.67" class="f">albus@Hogwarts</text><path class="g" d="M16.032 0h40v2.171h-40z"/><text x="16.032" y="1.67" class="h"> ~/Downloads/hermes_0.1.0_Darwin_arm64</text><text x="56.112" y="1.67" class="i"></text><text x="58.116" y="1.67" class="f">./hermes</text><text x="67.134" y="1.67" class="f">--config</text><text x="76.152" y="1.67" class="f">~</text></svg><svg x="3696"><use xlink:href="#a"/><use xlink:href="#b" x="77.996"/>0<text y="1.67" class="f">albus@Hogwarts</text><path class="g" d="M16.032 0h40v2.171h-40z"/><text x="16.032" y="1.67" class="h"> ~/Downloads/hermes_0.1.0_Darwin_arm64</text><text x="56.112" y="1.67" class="i"></text><text x="58.116" y="1.67" class="f">./hermes</text><text x="67.134" y="1.67" class="f">--config</text><text x="76.152" y="1.67" class="f">~/</text></svg><svg x="3850"><use xlink:href="#a"/><use xlink:href="#b" x="78.996"/>0<text y="1.67" class="f">albus@Hogwarts</text><path class="g" d="M16.032 0h40v2.171h-40z"/><text x="16.032" y="1.67" class="h"> ~/Downloads/hermes_0.1.0_Darwin_arm64</text><text x="56.112" y="1.67" class="i"></text><text x="58.116" y="1.67" class="f">./hermes</text><text x="67.134" y="1.67" class="f">--config</text><text x="76.152" y="1.67" class="f">~/.</text></svg><svg x="4004"><use xlink:href="#a"/><use xlink:href="#b" x="79.996"/>0<text y="1.67" class="f">albus@Hogwarts</text><path class="g" d="M16.032 0h40v2.171h-40z"/><text x="16.032" y="1.67" class="h"> ~/Downloads/hermes_0.1.0_Darwin_arm64</text><text x="56.112" y="1.67" class="i"></text><text x="58.116" y="1.67" class="f">./hermes</text><text x="67.134" y="1.67" class="f">--config</text><text x="76.152" y="1.67" class="f">~/.p</text></svg><svg x="4158"><use xlink:href="#a"/><use xlink:href="#b" x="80.996"/>0<text y="1.67" class="f">albus@Hogwarts</text><path class="g" d="M16.032 0h40v2.171h-40z"/><text x="16.032" y="1.67" class="h"> ~/Downloads/hermes_0.1.0_Darwin_arm64</text><text x="56.112" y="1.67" class="i"></text><text x="58.116" y="1.67" class="f">./hermes</text><text x="67.134" y="1.67" class="f">--config</text><text x="76.152" y="1.67" class="f">~/.px</text></svg><svg x="4312"><use xlink:href="#a"/><use xlink:href="#b" x="81.996"/>0<text y="1.67" class="f">albus@Hogwarts</text><path class="g" d="M16.032 0h40v2.171h-40z"/><text x="16.032" y="1.67" class="h"> ~/Downloads/hermes_0.1.0_Darwin_arm64</text><text x="56.112" y="1.67" class="i"></text><text x="58.116" y="1.67" class="f">./hermes</text><text x="67.134" y="1.67" class="f">--config</text><text x="76.152" y="1.67" class="f">~/.pxc</text></svg><svg x="4466"><use xlink:href="#a"/><use xlink:href="#b" x="82.996"/>0<text y="1.67" class="f">albus@Hogwarts</text><path class="g" d="M16.032 0h40v2.171h-40z"/><text x="16.032" y="1.67" class="h"> ~/Downloads/hermes_0.1.0_Darwin_arm64</text><text x="56.112" y="1.67" class="i"></text><text x="58.116" y="1.67" class="f">./hermes</text><text x="67.134" y="1.67" class="f">--config</text><text x="76.152" y="1.67" class="f">~/.pxcd</text></svg><svg x="4620"><use xlink:href="#a"/><use xlink:href="#b" x="85.996"/>0<text y="1.67" class="f">albus@Hogwarts</text><path class="g" d="M16.032 0h40v2.171h-40z"/><text x="16.032" y="1.67" class="h"> ~/Downloads/hermes_0.1.0_Darwin_arm64</text><text x="56.112" y="1.67" class="i"></text><text x="58.116" y="1.67" class="f">./hermes</text><text x="67.134" y="1.67" class="f">--config</text><text x="76.152" y="1.67" class="f">~/.pxcdev</text><text x="85.17" y="1.67" class="j">/</text></svg><svg x="4774"><use xlink:href="#a"/><use xlink:href="#b" x="86.996"/>0<text y="1.67" class="f">albus@Hogwarts</text><path class="g" d="M16.032 0h40v2.171h-40z"/><text x="16.032" y="1.67" class="h"> ~/Downloads/hermes_0.1.0_Darwin_arm64</text><text x="56.112" y="1.67" class="i"></text><text x="58.116" y="1.67" class="f">./hermes</text><text x="67.134" y="1.67" class="f">--config</text><text x="76.152" y="1.67" class="f">~/.pxcdev/`</text></svg><svg x="4928"><use xlink:href="#a"/><use xlink:href="#b" x="85.996"/>0<text y="1.67" class="f">albus@Hogwarts</text><path class="g" d="M16.032 0h40v2.171h-40z"/><text x="16.032" y="1.67" class="h"> ~/Downloads/hermes_0.1.0_Darwin_arm64</text><text x="56.112" y="1.67" class="i"></text><text x="58.116" y="1.67" class="f">./hermes</text><text x="67.134" y="1.67" class="f">--config</text><text x="76.152" y="1.67" class="f">~/.pxcdev/</text></svg><svg x="5082"><use xlink:href="#a"/><use xlink:href="#b" x="86.996"/>0<text y="1.67" class="f">albus@Hogwarts</text><path class="g" d="M16.032 0h40v2.171h-40z"/><text x="16.032" y="1.67" class="h"> ~/Downloads/hermes_0.1.0_Darwin_arm64</text><text x="56.112" y="1.67" class="i"></text><text x="58.116" y="1.67" class="f">./hermes</text><text x="67.134" y="1.67" class="f">--config</text><text x="76.152" y="1.67" class="f">~/.pxcdev/h</text></svg><svg x="5236"><use xlink:href="#a"/><use xlink:href="#b" x="87.996"/>0<text y="1.67" class="f">albus@Hogwarts</text><path class="g" d="M16.032 0h40v2.171h-40z"/><text x="16.032" y="1.67" class="h"> ~/Downloads/hermes_0.1.0_Darwin_arm64</text><text x="56.112" y="1.67" class="i"></text><text x="58.116" y="1.67" class="f">./hermes</text><text x="67.134" y="1.67" class="f">--config</text><text x="76.152" y="1.67" class="f">~/.pxcdev/he</text></svg><svg x="5390"><use xlink:href="#a"/><use xlink:href="#b" x="88.996"/>0<text y="1.67" class="f">albus@Hogwarts</text><path class="g" d="M16.032 0h40v2.171h-40z"/><text x="16.032" y="1.67" class="h"> ~/Downloads/hermes_0.1.0_Darwin_arm64</text><text x="56.112" y="1.67" class="i"></text><text x="58.116" y="1.67" class="f">./hermes</text><text x="67.134" y="1.67" class="f">--config</text><text x="76.152" y="1.67" class="f">~/.pxcdev/her</text></svg><svg x="5544"><use xlink:href="#a"/><use xlink:href="#b" x="96.996"/>0<text y="1.67" class="f">albus@Hogwarts</text><path class="g" d="M16.032 0h40v2.171h-40z"/><text x="16.032" y="1.67" class="h"> ~/Downloads/hermes_0.1.0_Darwin_arm64</text><text x="56.112" y="1.67" class="i"></text><text x="58.116" y="1.67" class="f">./hermes</text><text x="67.134" y="1.67" class="f">--config</text><text x="76.152" y="1.67" class="f">~/.pxcdev/hermes-cli</text><text x="96.192" y="1.67" class="j">/</text></svg><svg x="5698"><use xlink:href="#a"/><use xlink:href="#b" x="107.996"/><use xlink:href="#4"/></svg><svg x="5852"><use xlink:href="#a"/><use xlink:href="#b" x="107.996"/><use xlink:href="#4"/></svg><svg x="6006"><use xlink:href="#a"/><use xlink:href="#b" x="-.004" y="2.146"/><use xlink:href="#4"/></svg><svg x="6160"><use xlink:href="#a"/><use xlink:href="#b" x="-.004" y="2.146"/><use xlink:href="#4"/></svg><svg x="6314"><use xlink:href="#a"/><use xlink:href="#b" x="-.004" y="4.317"/><use xlink:href="#4"/><use xlink:href="#5" y="2.171"/></svg><svg x="6468"><use xlink:href="#a"/><use xlink:href="#4"/><use xlink:href="#5" y="2.171"/></svg><svg x="6622"><use xlink:href="#a"/><use xlink:href="#4"/><use xlink:href="#5" y="2.171"/><use xlink:href="#6" y="4.342"/><use xlink:href="#7" y="6.513"/><use xlink:href="#8" y="8.684"/><use xlink:href="#9" y="10.855"/><use xlink:href="#10" y="13.026"/></svg><svg x="6776"><use xlink:href="#a"/><use xlink:href="#4"/><use xlink:href="#5" y="2.171"/><use xlink:href="#6" y="4.342"/><use xlink:href="#7" y="6.513"/><use xlink:href="#11" y="8.684"/><use xlink:href="#12" y="10.855"/><use xlink:href="#10" y="13.026"/></svg><svg x="6930"><use xlink:href="#a"/><use xlink:href="#4"/><use xlink:href="#5" y="2.171"/><use xlink:href="#6" y="4.342"/><use xlink:href="#7" y="6.513"/><use xlink:href="#11" y="8.684"/><use xlink:href="#9" y="10.855"/><use xlink:href="#13" y="13.026"/></svg><svg x="7084"><use xlink:href="#a"/><use xlink:href="#4"/><use xlink:href="#5" y="2.171"/><use xlink:href="#6" y="4.342"/><use xlink:href="#7" y="6.513"/><use xlink:href="#11" y="8.684"/><use xlink:href="#9" y="10.855"/><use xlink:href="#13" y="13.026"/></svg><svg x="7238"><use xlink:href="#a"/><use xlink:href="#4"/><use xlink:href="#5" y="2.171"/><use xlink:href="#6" y="4.342"/><use xlink:href="#7" y="6.513"/><use xlink:href="#11" y="8.684"/><use xlink:href="#12" y="10.855"/><use xlink:href="#10" y="13.026"/></svg><svg x="7392"><use xlink:href="#a"/><use xlink:href="#4"/><use xlink:href="#5" y="2.171"/><use xlink:href="#6" y="4.342"/><use xlink:href="#7" y="6.513"/><use xlink:href="#8" y="8.684"/><use xlink:href="#9" y="10.855"/><use xlink:href="#10" y="13.026"/></svg><svg x="7546"><use xlink:href="#a"/><use xlink:href="#4"/><use xlink:href="#5" y="2.171"/><use xlink:href="#6" y="4.342"/><use xlink:href="#7" y="6.513"/><use xlink:href="#8" y="8.684"/><use xlink:href="#9" y="10.855"/><use xlink:href="#10" y="13.026"/></svg><svg x="7700"><use xlink:href="#a"/><use xlink:href="#b" x="-.004" y="6.488"/><use xlink:href="#4"/><use xlink:href="#5" y="2.171"/><use xlink:href="#14" y="4.342"/></svg><svg x="7854"><use xlink:href="#a"/><use xlink:href="#b" x="-.004" y="10.83"/><use xlink:href="#4"/><use xlink:href="#5" y="2.171"/><use xlink:href="#14" y="4.342"/><use xlink:href="#15" y="6.513"/><use xlink:href="#16" y="8.684"/></svg><svg x="8008"><use xlink:href="#a"/><use xlink:href="#b" x="153.996" y="10.83"/><use xlink:href="#4"/><use xlink:href="#5" y="2.171"/><use xlink:href="#14" y="4.342"/><use xlink:href="#15" y="6.513"/><use xlink:href="#16" y="8.684"/><use xlink:href="#17" y="10.855"/></svg><svg x="8162"><use xlink:href="#a"/><use xlink:href="#b" x="153.996" y="10.83"/><use xlink:href="#4"/><use xlink:href="#5" y="2.171"/><use xlink:href="#14" y="4.342"/><use xlink:href="#15" y="6.513"/><use xlink:href="#16" y="8.684"/><use xlink:href="#17" y="10.855"/></svg><svg x="8316"><use xlink:href="#a"/><use xlink:href="#b" x="153.996" y="10.83"/><use xlink:href="#4"/><use xlink:href="#5" y="2.171"/><use xlink:href="#14" y="4.342"/><use xlink:href="#15" y="6.513"/><use xlink:href="#16" y="8.684"/><use xlink:href="#17" y="10.855"/></svg><svg x="8470"><use xlink:href="#a"/><use xlink:href="#b" x="153.996" y="10.83"/><use xlink:href="#4"/><use xlink:href="#5" y="2.171"/><use xlink:href="#14" y="4.342"/><use xlink:href="#15" y="6.513"/><use xlink:href="#16" y="8.684"/><use xlink:href="#17" y="10.855"/></svg><svg x="8624"><use xlink:href="#a"/><use xlink:href="#b" x="153.996" y="10.83"/><use xlink:href="#4"/><use xlink:href="#5" y="2.171"/><use xlink:href="#14" y="4.342"/><use xlink:href="#15" y="6.513"/><use xlink:href="#16" y="8.684"/><use xlink:href="#17" y="10.855"/></svg><svg x="8778"><use xlink:href="#a"/><use xlink:href="#b" x="153.996" y="10.83"/><use xlink:href="#4"/><use xlink:href="#5" y="2.171"/><use xlink:href="#14" y="4.342"/><use xlink:href="#15" y="6.513"/><use xlink:href="#16" y="8.684"/><use xlink:href="#17" y="10.855"/></svg><svg x="8932"><use xlink:href="#a"/><use xlink:href="#b" x="153.996" y="10.83"/><use xlink:href="#4"/><use xlink:href="#5" y="2.171"/><use xlink:href="#14" y="4.342"/><use xlink:href="#15" y="6.513"/><use xlink:href="#16" y="8.684"/><use xlink:href="#17" y="10.855"/></svg><svg x="9086"><use xlink:href="#a"/><use xlink:href="#b" x="153.996" y="10.83"/><use xlink:href="#4"/><use xlink:href="#5" y="2.171"/><use xlink:href="#14" y="4.342"/><use xlink:href="#15" y="6.513"/><use xlink:href="#16" y="8.684"/><use xlink:href="#17" y="10.855"/></svg><svg x="9240"><use xlink:href="#a"/><use xlink:href="#b" x="153.996" y="10.83"/><use xlink:href="#4"/><use xlink:href="#5" y="2.171"/><use xlink:href="#14" y="4.342"/><use xlink:href="#15" y="6.513"/><use xlink:href="#16" y="8.684"/><use xlink:href="#17" y="10.855"/></svg><svg x="9394"><use xlink:href="#a"/><use xlink:href="#b" x="153.996" y="10.83"/><use xlink:href="#4"/><use xlink:href="#5" y="2.171"/><use xlink:href="#14" y="4.342"/><use xlink:href="#15" y="6.513"/><use xlink:href="#16" y="8.684"/><use xlink:href="#17" y="10.855"/></svg><svg x="9548"><use xlink:href="#a"/><use xlink:href="#b" x="153.996" y="10.83"/><use xlink:href="#4"/><use xlink:href="#5" y="2.171"/><use xlink:href="#14" y="4.342"/><use xlink:href="#15" y="6.513"/><use xlink:href="#16" y="8.684"/><use xlink:href="#18" y="10.855"/></svg><svg x="9702"><use xlink:href="#a"/><use xlink:href="#b" x="153.996" y="10.83"/><use xlink:href="#4"/><use xlink:href="#5" y="2.171"/><use xlink:href="#14" y="4.342"/><use xlink:href="#15" y="6.513"/><use xlink:href="#16" y="8.684"/><use xlink:href="#18" y="10.855"/></svg><svg x="9856"><use xlink:href="#a"/><use xlink:href="#b" x="153.996" y="10.83"/><use xlink:href="#4"/><use xlink:href="#5" y="2.171"/><use xlink:href="#14" y="4.342"/><use xlink:href="#15" y="6.513"/><use xlink:href="#16" y="8.684"/><use xlink:href="#19" y="10.855"/></svg><svg x="10010"><use xlink:href="#a"/><use xlink:href="#b" x="153.996" y="10.83"/><use xlink:href="#4"/><use xlink:href="#5" y="2.171"/><use xlink:href="#14" y="4.342"/><use xlink:href="#15" y="6.513"/><use xlink:href="#16" y="8.684"/><use xlink:href="#19" y="10.855"/></svg><svg x="10164"><use xlink:href="#a"/><use xlink:href="#b" x="153.996" y="10.83"/><use xlink:href="#4"/><use xlink:href="#5" y="2.171"/><use xlink:href="#14" y="4.342"/><use xlink:href="#15" y="6.513"/><use xlink:href="#16" y="8.684"/><use xlink:href="#19" y="10.855"/></svg><svg x="10318"><use xlink:href="#a"/><use xlink:href="#b" x="153.996" y="10.83"/><use xlink:href="#4"/><use xlink:href="#5" y="2.171"/><use xlink:href="#14" y="4.342"/><use xlink:href="#15" y="6.513"/><use xlink:href="#16" y="8.684"/><use xlink:href="#19" y="10.855"/></svg><svg x="10472"><use xlink:href="#a"/><use xlink:href="#b" x="153.996" y="10.83"/><use xlink:href="#4"/><use xlink:href="#5" y="2.171"/><use xlink:href="#14" y="4.342"/><use xlink:href="#15" y="6.513"/><use xlink:href="#16" y="8.684"/><use xlink:href="#19" y="10.855"/></svg><svg x="10626"><use xlink:href="#a"/><use xlink:href="#b" x="153.996" y="10.83"/><use xlink:href="#4"/><use xlink:href="#5" y="2.171"/><use xlink:href="#14" y="4.342"/><use xlink:href="#15" y="6.513"/><use xlink:href="#16" y="8.684"/><use xlink:href="#19" y="10.855"/></svg><svg x="10780"><use xlink:href="#a"/><use xlink:href="#b" x="153.996" y="10.83"/><use xlink:href="#4"/><use xlink:href="#5" y="2.171"/><use xlink:href="#14" y="4.342"/><use xlink:href="#15" y="6.513"/><use xlink:href="#16" y="8.684"/><text y="12.525" class="f">3</text><text x="2.004" y="12.525" class="f">/</text><text x="4.008" y="12.525" class="f">5</text><text x="6.012" y="12.525" class="f">[-------------------------------------------------------------------------------&gt;_____________________________________________________]</text><text x="142.284" y="12.525" class="f">60.00%</text><text x="149.298" y="12.525" class="f">1</text><text x="151.302" y="12.525" class="f">p/s</text></svg><svg x="10934"><use xlink:href="#a"/><use xlink:href="#b" x="153.996" y="10.83"/><use xlink:href="#4"/><use xlink:href="#5" y="2.171"/><use xlink:href="#14" y="4.342"/><use xlink:href="#15" y="6.513"/><use xlink:href="#16" y="8.684"/><text y="12.525" class="f">4</text><text x="2.004" y="12.525" class="f">/</text><text x="4.008" y="12.525" class="f">5</text><text x="6.012" y="12.525" class="f">[----------------------------------------------------------------------------------------------------------&gt;__________________________]</text><text x="142.284" y="12.525" class="f">80.00%</text><text x="149.298" y="12.525" class="f">1</text><text x="151.302" y="12.525" class="f">p/s</text></svg><svg x="11088"><use xlink:href="#a"/><use xlink:href="#b" x="-.004" y="23.856"/><use xlink:href="#4"/><use xlink:href="#5" y="2.171"/><use xlink:href="#14" y="4.342"/><use xlink:href="#15" y="6.513"/><use xlink:href="#16" y="8.684"/><use xlink:href="#20" y="10.855"/><use xlink:href="#21" y="13.026"/><use xlink:href="#22" y="15.197"/><use xlink:href="#23" y="17.368"/><use xlink:href="#24" y="19.539"/><use xlink:href="#25" y="21.71"/></svg><svg x="11242"><use xlink:href="#a"/><use xlink:href="#b" x="-.004" y="23.856"/><use xlink:href="#4"/><use xlink:href="#5" y="2.171"/><use xlink:href="#14" y="4.342"/><use xlink:href="#15" y="6.513"/><use xlink:href="#16" y="8.684"/><use xlink:href="#20" y="10.855"/><use xlink:href="#21" y="13.026"/><use xlink:href="#22" y="15.197"/><use xlink:href="#23" y="17.368"/><use xlink:href="#24" y="19.539"/><use xlink:href="#25" y="21.71"/></svg><svg x="11396"><use xlink:href="#a"/><use xlink:href="#b" x="-.004" y="23.856"/><use xlink:href="#4"/><use xlink:href="#5" y="2.171"/><use xlink:href="#14" y="4.342"/><use xlink:href="#15" y="6.513"/><use xlink:href="#16" y="8.684"/><use xlink:href="#20" y="10.855"/><use xlink:href="#21" y="13.026"/><use xlink:href="#22" y="15.197"/><use xlink:href="#23" y="17.368"/><use xlink:href="#24" y="19.539"/><use xlink:href="#25" y="21.71"/></svg><svg x="11550"><use xlink:href="#a"/><use xlink:href="#b" x="57.996" y="23.856"/><use xlink:href="#4"/><use xlink:href="#5" y="2.171"/><use xlink:href="#14" y="4.342"/><use xlink:href="#15" y="6.513"/><use xlink:href="#16" y="8.684"/><use xlink:href="#20" y="10.855"/><use xlink:href="#21" y="13.026"/><use xlink:href="#22" y="15.197"/><use xlink:href="#23" y="17.368"/><use xlink:href="#24" y="19.539"/><use xlink:href="#25" y="21.71"/><use xlink:href="#1" y="23.881"/></svg><svg x="11704"><use xlink:href="#a"/><use xlink:href="#b" x="57.996" y="23.856"/><use xlink:href="#4"/><use xlink:href="#5" y="2.171"/><use xlink:href="#14" y="4.342"/><use xlink:href="#15" y="6.513"/><use xlink:href="#16" y="8.684"/><use xlink:href="#20" y="10.855"/><use xlink:href="#21" y="13.026"/><use xlink:href="#22" y="15.197"/><use xlink:href="#23" y="17.368"/><use xlink:href="#24" y="19.539"/><use xlink:href="#25" y="21.71"/><use xlink:href="#1" y="23.881"/></svg><svg x="11858"><use xlink:href="#a"/><use xlink:href="#b" x="-.004" y="26.027"/><use xlink:href="#4"/><use xlink:href="#5" y="2.171"/><use xlink:href="#14" y="4.342"/><use xlink:href="#15" y="6.513"/><use xlink:href="#16" y="8.684"/><use xlink:href="#20" y="10.855"/><use xlink:href="#21" y="13.026"/><use xlink:href="#22" y="15.197"/><use xlink:href="#23" y="17.368"/><use xlink:href="#24" y="19.539"/><use xlink:href="#25" y="21.71"/><use xlink:href="#1" y="23.881"/></svg></svg></g></g></svg></svg>