<svg xmlns="http://www.w3.org/2000/svg" xmlns:xlink="http://www.w3.org/1999/xlink" width="2400" height="2209.29"><rect width="2400" height="2209.29" rx="5" ry="5" class="a"/><svg y="0%" x="0%"><circle cx="20" cy="20" r="6" fill="#ff5f58"/><circle cx="40" cy="20" r="6" fill="#ffbd2e"/><circle cx="60" cy="20" r="6" fill="#18c132"/></svg><svg height="2149.29" viewBox="0 0 236 214.929" width="2360" x="15" xmlns="http://www.w3.org/2000/svg" xmlns:xlink="http://www.w3.org/1999/xlink" y="50"><style>@keyframes m{0%{transform:translateX(0)}1.67%{transform:translateX(-236px)}1.72%{transform:translateX(-708px)}8.82%{transform:translateX(-944px)}9.74%{transform:translateX(-1180px)}11.72%{transform:translateX(-1416px)}12.33%{transform:translateX(-1652px)}13.11%{transform:translateX(-1888px)}14.21%{transform:translateX(-2124px)}14.74%{transform:translateX(-2360px)}15.81%{transform:translateX(-2596px)}21.51%{transform:translateX(-2832px)}24.96%{transform:translateX(-3068px)}25.55%{transform:translateX(-3304px)}27.42%{transform:translateX(-3540px)}28.05%{transform:translateX(-3776px)}28.27%{transform:translateX(-4012px)}28.7%{transform:translateX(-4248px)}29.24%{transform:translateX(-4484px)}29.59%{transform:translateX(-4720px)}31.3%{transform:translateX(-4956px)}34.93%{transform:translateX(-5192px)}37.89%{transform:translateX(-5428px)}43.57%{transform:translateX(-5664px)}47.39%{transform:translateX(-5900px)}48.57%{transform:translateX(-6136px)}49.44%{transform:translateX(-6372px)}50.73%{transform:translateX(-6608px)}54.3%{transform:translateX(-6844px)}54.65%{transform:translateX(-7080px)}55.34%{transform:translateX(-7316px)}56.54%{transform:translateX(-7552px)}57.93%{transform:translateX(-7788px)}64.85%{transform:translateX(-8260px)}64.86%{transform:translateX(-8496px)}64.91%{transform:translateX(-9204px)}71.3%{transform:translateX(-9440px)}72.2%{transform:translateX(-9676px)}73.11%{transform:translateX(-9912px)}74%{transform:translateX(-10148px)}74.91%{transform:translateX(-10384px)}75.81%{transform:translateX(-10620px)}76.71%{transform:translateX(-10856px)}77.61%{transform:translateX(-11092px)}78.51%{transform:translateX(-11328px)}79.4%{transform:translateX(-11564px)}80.31%{transform:translateX(-11800px)}81.2%{transform:translateX(-12036px)}82.1%{transform:translateX(-12272px)}83%{transform:translateX(-12508px)}83.9%{transform:translateX(-12744px)}84.8%{transform:translateX(-12980px)}85.7%{transform:translateX(-13216px)}86.6%{transform:translateX(-13452px)}87.51%{transform:translateX(-13688px)}88.4%{transform:translateX(-13924px)}89.3%{transform:translateX(-14160px)}90.14%{transform:translateX(-14396px)}90.18%{transform:translateX(-14868px)}90.27%{transform:translateX(-15576px)}to{transform:translateX(-15812px)}}.a{fill:#282d35}.f{fill:#b9c0cb;white-space:pre}.g{fill:#71bef2}.h,.i,.o{white-space:pre}.i,.o{fill:#71bef2}.o{fill:#b9c0cb;font-weight:700}</style><g font-family="Monaco,Consolas,Menlo,'Bitstream Vera Sans Mono','Powerline Symbols',monospace" font-size="1.67"><defs><symbol id="1">0<text y="1.67" class="f">albus@Hogwarts</text><path class="g" d="M16.032 0h40v2.171h-40z"/><text x="16.032" y="1.67" class="h"> ~/Downloads/hermes_0.1.0_Darwin_arm64</text><text x="56.112" y="1.67" class="i"></text></symbol><symbol id="2">0<text y="1.67" class="f">albus@Hogwarts</text><path class="g" d="M16.032 0h40v2.171h-40z"/><text x="16.032" y="1.67" class="h"> ~/Downloads/hermes_0.1.0_Darwin_arm64</text><text x="56.112" y="1.67" class="i"></text><text x="58.116" y="1.67" class="f">./hermes</text></symbol><symbol id="3">0<text y="1.67" class="f">albus@Hogwarts</text><path class="g" d="M16.032 0h40v2.171h-40z"/><text x="16.032" y="1.67" class="h"> ~/Downloads/hermes_0.1.0_Darwin_arm64</text><text x="56.112" y="1.67" class="i"></text><text x="58.116" y="1.67" class="f">./hermes</text><text x="67.134" y="1.67" class="f">--config</text></symbol><symbol id="4">0<text y="1.67" class="f">albus@Hogwarts</text><path class="g" d="M16.032 0h40v2.171h-40z"/><text x="16.032" y="1.67" class="h"> ~/Downloads/hermes_0.1.0_Darwin_arm64</text><text x="56.112" y="1.67" class="i"></text><text x="58.116" y="1.67" class="f">./hermes</text><text x="67.134" y="1.67" class="f">--config</text><text x="76.152" y="1.67" class="f">~/.pxcdev/hermes-cli/config.json</text></symbol><symbol id="5"><text y="1.67" class="f">Initializing</text><text x="13.026" y="1.67" class="f">the</text><text x="17.034" y="1.67" class="f">SSE</text><text x="21.042" y="1.67" class="f">testing</text><text x="29.058" y="1.67" class="f">tool...</text></symbol><symbol id="6"><text y="1.67" style="white-space:pre" fill="#a8cc8c">✔</text><text x="2.004" y="1.67" class="f">localhost</text></symbol><symbol id="7"><text y="1.67" class="f">ENVIRONMENT:</text><text x="13.026" y="1.67" class="f">localhost</text></symbol><symbol id="8"><text y="1.67" class="f">MERCURE</text><text x="8.016" y="1.67" class="f">HUB</text><text x="12.024" y="1.67" class="f">URL:</text><text x="17.034" y="1.67" class="f">https://localhost/.well-known/mercure</text></symbol><symbol id="9"><text y="1.67" class="f">2</text><text x="2.004" y="1.67" class="f">/</text><text x="4.008" y="1.67" class="f">5</text><text x="6.012" y="1.67" class="f">[-------------------------------------------------------------------------------------&gt;_________________________________________________________________________________________________________________________________]</text><text x="224.448" y="1.67" class="f">40.00%</text><text x="231.462" y="1.67" class="f">?</text><text x="233.466" y="1.67" class="f">p/s</text></symbol><symbol id="10"><text y="1.67" class="f">3</text><text x="2.004" y="1.67" class="f">/</text><text x="4.008" y="1.67" class="f">5</text><text x="6.012" y="1.67" class="f">[--------------------------------------------------------------------------------------------------------------------------------&gt;______________________________________________________________________________________]</text><text x="224.448" y="1.67" class="f">60.00%</text><text x="231.462" y="1.67" class="f">?</text><text x="233.466" y="1.67" class="f">p/s</text></symbol><symbol id="11"><text y="1.67" class="f">3</text><text x="2.004" y="1.67" class="f">/</text><text x="4.008" y="1.67" class="f">5</text><text x="6.012" y="1.67" class="f">[--------------------------------------------------------------------------------------------------------------------------------&gt;______________________________________________________________________________________]</text><text x="224.448" y="1.67" class="f">60.00%</text><text x="231.462" y="1.67" class="f">2</text><text x="233.466" y="1.67" class="f">p/s</text></symbol><symbol id="12"><text y="1.67" class="f">5</text><text x="2.004" y="1.67" class="f">/</text><text x="4.008" y="1.67" class="f">5</text><text x="6.012" y="1.67" class="f">[----------------------------------------------------------------------------------------------------------------------------------------------------------------------------------------------------------------------]</text><text x="223.446" y="1.67" class="f">100.00%</text><text x="231.462" y="1.67" class="f">1</text><text x="233.466" y="1.67" class="f">p/s</text></symbol><symbol id="13"><text y="1.67" class="f">Mercure</text><text x="8.016" y="1.67" class="f">Event:</text><text x="15.03" y="1.67" class="f">{urn:uuid:e0d0b311-4809-440d-b3f0-b6ae1c121215</text><text x="62.124" y="1.67" class="f">test_mercure_events</text><text x="82.164" y="1.67" class="f">mock}</text></symbol><symbol id="14"><text y="1.67" class="f">Mercure</text><text x="8.016" y="1.67" class="f">Event:</text><text x="15.03" y="1.67" class="f">{urn:uuid:978c0021-8919-43f0-8345-69db5556347e</text><text x="62.124" y="1.67" class="f">test_mercure_events</text><text x="82.164" y="1.67" class="f">mock}</text></symbol><symbol id="15"><text y="1.67" class="f">Mercure</text><text x="8.016" y="1.67" class="f">Event:</text><text x="15.03" y="1.67" class="f">{urn:uuid:daa079f7-3a3b-41ee-8d4c-458bf3a54d47</text><text x="62.124" y="1.67" class="f">test_mercure_events</text><text x="82.164" y="1.67" class="f">mock}</text></symbol><symbol id="16"><text y="1.67" class="f">Mercure</text><text x="8.016" y="1.67" class="f">Event:</text><text x="15.03" y="1.67" class="f">{urn:uuid:7e58e0e4-687c-47b1-bbdc-6902e6b365a7</text><text x="62.124" y="1.67" class="f">test_mercure_events</text><text x="82.164" y="1.67" class="f">mock}</text></symbol><symbol id="17"><text y="1.67" class="f">Mercure</text><text x="8.016" y="1.67" class="f">Event:</text><text x="15.03" y="1.67" class="f">{urn:uuid:9b2089dd-bfb9-4703-a7a6-ee109e7246a0</text><text x="62.124" y="1.67" class="f">test_mercure_events</text><text x="82.164" y="1.67" class="f">mock}</text></symbol><symbol id="a"><path fill="transparent" d="M0 0h236v99H0z"/></symbol><symbol id="b"><path fill="#6f7683" d="M0 0h1.102v2.171H0z"/></symbol></defs><path class="a" d="M0 0h236v214.929H0z"/><g style="animation-duration:22.225771s;animation-iteration-count:infinite;animation-name:m;animation-timing-function:steps(1,end)"><svg width="16048"><svg><use xlink:href="#a"/><use xlink:href="#b" x="-.004"/></svg><svg x="236"><use xlink:href="#a"/><use xlink:href="#b" x="-.004"/></svg><svg x="472"><use xlink:href="#a"/><use xlink:href="#b" x="57.996"/><use xlink:href="#1"/></svg><svg x="708"><use xlink:href="#a"/><use xlink:href="#b" x="57.996"/><use xlink:href="#1"/></svg><svg x="944"><use xlink:href="#a"/><use xlink:href="#b" x="58.996"/>0<text y="1.67" class="f">albus@Hogwarts</text><path class="g" d="M16.032 0h40v2.171h-40z"/><text x="16.032" y="1.67" class="h"> ~/Downloads/hermes_0.1.0_Darwin_arm64</text><text x="56.112" y="1.67" class="i"></text><text x="58.116" y="1.67" class="f">.</text></svg><svg x="1180"><use xlink:href="#a"/><use xlink:href="#b" x="59.996"/>0<text y="1.67" class="f">albus@Hogwarts</text><path class="g" d="M16.032 0h40v2.171h-40z"/><text x="16.032" y="1.67" class="h"> ~/Downloads/hermes_0.1.0_Darwin_arm64</text><text x="56.112" y="1.67" class="i"></text><text x="58.116" y="1.67" class="f">./</text></svg><svg x="1416"><use xlink:href="#a"/><use xlink:href="#b" x="60.996"/>0<text y="1.67" class="f">albus@Hogwarts</text><path class="g" d="M16.032 0h40v2.171h-40z"/><text x="16.032" y="1.67" class="h"> ~/Downloads/hermes_0.1.0_Darwin_arm64</text><text x="56.112" y="1.67" class="i"></text><text x="58.116" y="1.67" class="f">./h</text></svg><svg x="1652"><use xlink:href="#a"/><use xlink:href="#b" x="61.996"/>0<text y="1.67" class="f">albus@Hogwarts</text><path class="g" d="M16.032 0h40v2.171h-40z"/><text x="16.032" y="1.67" class="h"> ~/Downloads/hermes_0.1.0_Darwin_arm64</text><text x="56.112" y="1.67" class="i"></text><text x="58.116" y="1.67" class="f">./he</text></svg><svg x="1888"><use xlink:href="#a"/><use xlink:href="#b" x="62.996"/>0<text y="1.67" class="f">albus@Hogwarts</text><path class="g" d="M16.032 0h40v2.171h-40z"/><text x="16.032" y="1.67" class="h"> ~/Downloads/hermes_0.1.0_Darwin_arm64</text><text x="56.112" y="1.67" class="i"></text><text x="58.116" y="1.67" class="f">./her</text></svg><svg x="2124"><use xlink:href="#a"/><use xlink:href="#b" x="63.996"/>0<text y="1.67" class="f">albus@Hogwarts</text><path class="g" d="M16.032 0h40v2.171h-40z"/><text x="16.032" y="1.67" class="h"> ~/Downloads/hermes_0.1.0_Darwin_arm64</text><text x="56.112" y="1.67" class="i"></text><text x="58.116" y="1.67" class="f">./herm</text></svg><svg x="2360"><use xlink:href="#a"/><use xlink:href="#b" x="64.996"/>0<text y="1.67" class="f">albus@Hogwarts</text><path class="g" d="M16.032 0h40v2.171h-40z"/><text x="16.032" y="1.67" class="h"> ~/Downloads/hermes_0.1.0_Darwin_arm64</text><text x="56.112" y="1.67" class="i"></text><text x="58.116" y="1.67" class="f">./herme</text></svg><svg x="2596"><use xlink:href="#a"/><use xlink:href="#b" x="65.996"/><use xlink:href="#2"/></svg><svg x="2832"><use xlink:href="#a"/><use xlink:href="#b" x="66.996"/><use xlink:href="#2"/></svg><svg x="3068"><use xlink:href="#a"/><use xlink:href="#b" x="67.996"/>0<text y="1.67" class="f">albus@Hogwarts</text><path class="g" d="M16.032 0h40v2.171h-40z"/><text x="16.032" y="1.67" class="h"> ~/Downloads/hermes_0.1.0_Darwin_arm64</text><text x="56.112" y="1.67" class="i"></text><text x="58.116" y="1.67" class="f">./hermes</text><text x="67.134" y="1.67" class="f">-</text></svg><svg x="3304"><use xlink:href="#a"/><use xlink:href="#b" x="68.996"/>0<text y="1.67" class="f">albus@Hogwarts</text><path class="g" d="M16.032 0h40v2.171h-40z"/><text x="16.032" y="1.67" class="h"> ~/Downloads/hermes_0.1.0_Darwin_arm64</text><text x="56.112" y="1.67" class="i"></text><text x="58.116" y="1.67" class="f">./hermes</text><text x="67.134" y="1.67" class="f">--</text></svg><svg x="3540"><use xlink:href="#a"/><use xlink:href="#b" x="69.996"/>0<text y="1.67" class="f">albus@Hogwarts</text><path class="g" d="M16.032 0h40v2.171h-40z"/><text x="16.032" y="1.67" class="h"> ~/Downloads/hermes_0.1.0_Darwin_arm64</text><text x="56.112" y="1.67" class="i"></text><text x="58.116" y="1.67" class="f">./hermes</text><text x="67.134" y="1.67" class="f">--c</text></svg><svg x="3776"><use xlink:href="#a"/><use xlink:href="#b" x="70.996"/>0<text y="1.67" class="f">albus@Hogwarts</text><path class="g" d="M16.032 0h40v2.171h-40z"/><text x="16.032" y="1.67" class="h"> ~/Downloads/hermes_0.1.0_Darwin_arm64</text><text x="56.112" y="1.67" class="i"></text><text x="58.116" y="1.67" class="f">./hermes</text><text x="67.134" y="1.67" class="f">--co</text></svg><svg x="4012"><use xlink:href="#a"/><use xlink:href="#b" x="71.996"/>0<text y="1.67" class="f">albus@Hogwarts</text><path class="g" d="M16.032 0h40v2.171h-40z"/><text x="16.032" y="1.67" class="h"> ~/Downloads/hermes_0.1.0_Darwin_arm64</text><text x="56.112" y="1.67" class="i"></text><text x="58.116" y="1.67" class="f">./hermes</text><text x="67.134" y="1.67" class="f">--con</text></svg><svg x="4248"><use xlink:href="#a"/><use xlink:href="#b" x="72.996"/>0<text y="1.67" class="f">albus@Hogwarts</text><path class="g" d="M16.032 0h40v2.171h-40z"/><text x="16.032" y="1.67" class="h"> ~/Downloads/hermes_0.1.0_Darwin_arm64</text><text x="56.112" y="1.67" class="i"></text><text x="58.116" y="1.67" class="f">./hermes</text><text x="67.134" y="1.67" class="f">--conf</text></svg><svg x="4484"><use xlink:href="#a"/><use xlink:href="#b" x="73.996"/>0<text y="1.67" class="f">albus@Hogwarts</text><path class="g" d="M16.032 0h40v2.171h-40z"/><text x="16.032" y="1.67" class="h"> ~/Downloads/hermes_0.1.0_Darwin_arm64</text><text x="56.112" y="1.67" class="i"></text><text x="58.116" y="1.67" class="f">./hermes</text><text x="67.134" y="1.67" class="f">--confi</text></svg><svg x="4720"><use xlink:href="#a"/><use xlink:href="#b" x="74.996"/><use xlink:href="#3"/></svg><svg x="4956"><use xlink:href="#a"/><use xlink:href="#b" x="75.996"/><use xlink:href="#3"/></svg><svg x="5192"><use xlink:href="#a"/><use xlink:href="#b" x="76.996"/>0<text y="1.67" class="f">albus@Hogwarts</text><path class="g" d="M16.032 0h40v2.171h-40z"/><text x="16.032" y="1.67" class="h"> ~/Downloads/hermes_0.1.0_Darwin_arm64</text><text x="56.112" y="1.67" class="i"></text><text x="58.116" y="1.67" class="f">./hermes</text><text x="67.134" y="1.67" class="f">--config</text><text x="76.152" y="1.67" class="f">~</text></svg><svg x="5428"><use xlink:href="#a"/><use xlink:href="#b" x="77.996"/>0<text y="1.67" class="f">albus@Hogwarts</text><path class="g" d="M16.032 0h40v2.171h-40z"/><text x="16.032" y="1.67" class="h"> ~/Downloads/hermes_0.1.0_Darwin_arm64</text><text x="56.112" y="1.67" class="i"></text><text x="58.116" y="1.67" class="f">./hermes</text><text x="67.134" y="1.67" class="f">--config</text><text x="76.152" y="1.67" class="f">~/</text></svg><svg x="5664"><use xlink:href="#a"/><use xlink:href="#b" x="78.996"/>0<text y="1.67" class="f">albus@Hogwarts</text><path class="g" d="M16.032 0h40v2.171h-40z"/><text x="16.032" y="1.67" class="h"> ~/Downloads/hermes_0.1.0_Darwin_arm64</text><text x="56.112" y="1.67" class="i"></text><text x="58.116" y="1.67" class="f">./hermes</text><text x="67.134" y="1.67" class="f">--config</text><text x="76.152" y="1.67" class="f">~/.</text></svg><svg x="5900"><use xlink:href="#a"/><use xlink:href="#b" x="79.996"/>0<text y="1.67" class="f">albus@Hogwarts</text><path class="g" d="M16.032 0h40v2.171h-40z"/><text x="16.032" y="1.67" class="h"> ~/Downloads/hermes_0.1.0_Darwin_arm64</text><text x="56.112" y="1.67" class="i"></text><text x="58.116" y="1.67" class="f">./hermes</text><text x="67.134" y="1.67" class="f">--config</text><text x="76.152" y="1.67" class="f">~/.p</text></svg><svg x="6136"><use xlink:href="#a"/><use xlink:href="#b" x="80.996"/>0<text y="1.67" class="f">albus@Hogwarts</text><path class="g" d="M16.032 0h40v2.171h-40z"/><text x="16.032" y="1.67" class="h"> ~/Downloads/hermes_0.1.0_Darwin_arm64</text><text x="56.112" y="1.67" class="i"></text><text x="58.116" y="1.67" class="f">./hermes</text><text x="67.134" y="1.67" class="f">--config</text><text x="76.152" y="1.67" class="f">~/.px</text></svg><svg x="6372"><use xlink:href="#a"/><use xlink:href="#b" x="81.996"/>0<text y="1.67" class="f">albus@Hogwarts</text><path class="g" d="M16.032 0h40v2.171h-40z"/><text x="16.032" y="1.67" class="h"> ~/Downloads/hermes_0.1.0_Darwin_arm64</text><text x="56.112" y="1.67" class="i"></text><text x="58.116" y="1.67" class="f">./hermes</text><text x="67.134" y="1.67" class="f">--config</text><text x="76.152" y="1.67" class="f">~/.pxc</text></svg><svg x="6608"><use xlink:href="#a"/><use xlink:href="#b" x="85.996"/>0<text y="1.67" class="f">albus@Hogwarts</text><path class="g" d="M16.032 0h40v2.171h-40z"/><text x="16.032" y="1.67" class="h"> ~/Downloads/hermes_0.1.0_Darwin_arm64</text><text x="56.112" y="1.67" class="i"></text><text x="58.116" y="1.67" class="f">./hermes</text><text x="67.134" y="1.67" class="f">--config</text><text x="76.152" y="1.67" class="f">~/.pxcdev</text><text x="85.17" y="1.67" class="o">/</text></svg><svg x="6844"><use xlink:href="#a"/><use xlink:href="#b" x="86.996"/>0<text y="1.67" class="f">albus@Hogwarts</text><path class="g" d="M16.032 0h40v2.171h-40z"/><text x="16.032" y="1.67" class="h"> ~/Downloads/hermes_0.1.0_Darwin_arm64</text><text x="56.112" y="1.67" class="i"></text><text x="58.116" y="1.67" class="f">./hermes</text><text x="67.134" y="1.67" class="f">--config</text><text x="76.152" y="1.67" class="f">~/.pxcdev/h</text></svg><svg x="7080"><use xlink:href="#a"/><use xlink:href="#b" x="87.996"/>0<text y="1.67" class="f">albus@Hogwarts</text><path class="g" d="M16.032 0h40v2.171h-40z"/><text x="16.032" y="1.67" class="h"> ~/Downloads/hermes_0.1.0_Darwin_arm64</text><text x="56.112" y="1.67" class="i"></text><text x="58.116" y="1.67" class="f">./hermes</text><text x="67.134" y="1.67" class="f">--config</text><text x="76.152" y="1.67" class="f">~/.pxcdev/he</text></svg><svg x="7316"><use xlink:href="#a"/><use xlink:href="#b" x="88.996"/>0<text y="1.67" class="f">albus@Hogwarts</text><path class="g" d="M16.032 0h40v2.171h-40z"/><text x="16.032" y="1.67" class="h"> ~/Downloads/hermes_0.1.0_Darwin_arm64</text><text x="56.112" y="1.67" class="i"></text><text x="58.116" y="1.67" class="f">./hermes</text><text x="67.134" y="1.67" class="f">--config</text><text x="76.152" y="1.67" class="f">~/.pxcdev/her</text></svg><svg x="7552"><use xlink:href="#a"/><use xlink:href="#b" x="96.996"/>0<text y="1.67" class="f">albus@Hogwarts</text><path class="g" d="M16.032 0h40v2.171h-40z"/><text x="16.032" y="1.67" class="h"> ~/Downloads/hermes_0.1.0_Darwin_arm64</text><text x="56.112" y="1.67" class="i"></text><text x="58.116" y="1.67" class="f">./hermes</text><text x="67.134" y="1.67" class="f">--config</text><text x="76.152" y="1.67" class="f">~/.pxcdev/hermes-cli</text><text x="96.192" y="1.67" class="o">/</text></svg><svg x="7788"><use xlink:href="#a"/><use xlink:href="#b" x="107.996"/><use xlink:href="#4"/></svg><svg x="8024"><use xlink:href="#a"/><use xlink:href="#b" x="107.996"/><use xlink:href="#4"/></svg><svg x="8260"><use xlink:href="#a"/><use xlink:href="#b" x="-.004" y="2.146"/><use xlink:href="#4"/></svg><svg x="8496"><use xlink:href="#a"/><use xlink:href="#b" x="-.004" y="2.146"/><use xlink:href="#4"/></svg><svg x="8732"><use xlink:href="#a"/><use xlink:href="#b" x="-.004" y="4.317"/><use xlink:href="#4"/><use xlink:href="#5" y="2.171"/></svg><svg x="8968"><use xlink:href="#a"/><use xlink:href="#4"/><use xlink:href="#5" y="2.171"/></svg><svg x="9204"><use xlink:href="#a"/><use xlink:href="#4"/><use xlink:href="#5" y="2.171"/><text y="6.012" class="f">Use</text><text x="4.008" y="6.012" class="f">the</text><text x="8.016" y="6.012" class="f">arrow</text><text x="14.028" y="6.012" class="f">keys</text><text x="19.038" y="6.012" class="f">to</text><text x="22.044" y="6.012" class="f">navigate:</text><text x="32.064" y="6.012" class="f">↓</text><text x="34.068" y="6.012" class="f">↑</text><text x="36.072" y="6.012" class="f">→</text><text x="38.076" y="6.012" class="f">←</text><text y="8.183" class="i">?</text><text x="2.004" y="8.183" class="f">Select</text><text x="9.018" y="8.183" class="f">the</text><text x="13.026" y="8.183" class="f">Mercure</text><text x="21.042" y="8.183" class="f">Hub</text><text x="25.05" y="8.183" class="f">environment:</text><text x="2.004" y="10.354" class="o">▸</text><text x="4.008" y="10.354" style="white-space:pre" fill="#b9c0cb" text-decoration="underline">localhost</text><text x="4.008" y="12.525" class="f">test</text><text x="4.008" y="14.696" class="f">prod</text></svg><svg x="9440"><use xlink:href="#a"/><use xlink:href="#b" x="-.004" y="10.83"/><use xlink:href="#4"/><use xlink:href="#5" y="2.171"/><use xlink:href="#6" y="4.342"/><use xlink:href="#7" y="6.513"/><use xlink:href="#8" y="8.684"/></svg><svg x="9676"><use xlink:href="#a"/><use xlink:href="#b" x="235.996" y="10.83"/><use xlink:href="#4"/><use xlink:href="#5" y="2.171"/><use xlink:href="#6" y="4.342"/><use xlink:href="#7" y="6.513"/><use xlink:href="#8" y="8.684"/><use xlink:href="#9" y="10.855"/></svg><svg x="9912"><use xlink:href="#a"/><use xlink:href="#b" x="235.996" y="10.83"/><use xlink:href="#4"/><use xlink:href="#5" y="2.171"/><use xlink:href="#6" y="4.342"/><use xlink:href="#7" y="6.513"/><use xlink:href="#8" y="8.684"/><use xlink:href="#9" y="10.855"/></svg><svg x="10148"><use xlink:href="#a"/><use xlink:href="#b" x="235.996" y="10.83"/><use xlink:href="#4"/><use xlink:href="#5" y="2.171"/><use xlink:href="#6" y="4.342"/><use xlink:href="#7" y="6.513"/><use xlink:href="#8" y="8.684"/><use xlink:href="#9" y="10.855"/></svg><svg x="10384"><use xlink:href="#a"/><use xlink:href="#b" x="235.996" y="10.83"/><use xlink:href="#4"/><use xlink:href="#5" y="2.171"/><use xlink:href="#6" y="4.342"/><use xlink:href="#7" y="6.513"/><use xlink:href="#8" y="8.684"/><use xlink:href="#9" y="10.855"/></svg><svg x="10620"><use xlink:href="#a"/><use xlink:href="#b" x="235.996" y="10.83"/><use xlink:href="#4"/><use xlink:href="#5" y="2.171"/><use xlink:href="#6" y="4.342"/><use xlink:href="#7" y="6.513"/><use xlink:href="#8" y="8.684"/><use xlink:href="#9" y="10.855"/></svg><svg x="10856"><use xlink:href="#a"/><use xlink:href="#b" x="235.996" y="10.83"/><use xlink:href="#4"/><use xlink:href="#5" y="2.171"/><use xlink:href="#6" y="4.342"/><use xlink:href="#7" y="6.513"/><use xlink:href="#8" y="8.684"/><use xlink:href="#9" y="10.855"/></svg><svg x="11092"><use xlink:href="#a"/><use xlink:href="#b" x="235.996" y="10.83"/><use xlink:href="#4"/><use xlink:href="#5" y="2.171"/><use xlink:href="#6" y="4.342"/><use xlink:href="#7" y="6.513"/><use xlink:href="#8" y="8.684"/><use xlink:href="#9" y="10.855"/></svg><svg x="11328"><use xlink:href="#a"/><use xlink:href="#b" x="235.996" y="10.83"/><use xlink:href="#4"/><use xlink:href="#5" y="2.171"/><use xlink:href="#6" y="4.342"/><use xlink:href="#7" y="6.513"/><use xlink:href="#8" y="8.684"/><use xlink:href="#9" y="10.855"/></svg><svg x="11564"><use xlink:href="#a"/><use xlink:href="#b" x="235.996" y="10.83"/><use xlink:href="#4"/><use xlink:href="#5" y="2.171"/><use xlink:href="#6" y="4.342"/><use xlink:href="#7" y="6.513"/><use xlink:href="#8" y="8.684"/><use xlink:href="#9" y="10.855"/></svg><svg x="11800"><use xlink:href="#a"/><use xlink:href="#b" x="235.996" y="10.83"/><use xlink:href="#4"/><use xlink:href="#5" y="2.171"/><use xlink:href="#6" y="4.342"/><use xlink:href="#7" y="6.513"/><use xlink:href="#8" y="8.684"/><use xlink:href="#9" y="10.855"/></svg><svg x="12036"><use xlink:href="#a"/><use xlink:href="#b" x="235.996" y="10.83"/><use xlink:href="#4"/><use xlink:href="#5" y="2.171"/><use xlink:href="#6" y="4.342"/><use xlink:href="#7" y="6.513"/><use xlink:href="#8" y="8.684"/><use xlink:href="#10" y="10.855"/></svg><svg x="12272"><use xlink:href="#a"/><use xlink:href="#b" x="235.996" y="10.83"/><use xlink:href="#4"/><use xlink:href="#5" y="2.171"/><use xlink:href="#6" y="4.342"/><use xlink:href="#7" y="6.513"/><use xlink:href="#8" y="8.684"/><use xlink:href="#10" y="10.855"/></svg><svg x="12508"><use xlink:href="#a"/><use xlink:href="#b" x="235.996" y="10.83"/><use xlink:href="#4"/><use xlink:href="#5" y="2.171"/><use xlink:href="#6" y="4.342"/><use xlink:href="#7" y="6.513"/><use xlink:href="#8" y="8.684"/><use xlink:href="#11" y="10.855"/></svg><svg x="12744"><use xlink:href="#a"/><use xlink:href="#b" x="235.996" y="10.83"/><use xlink:href="#4"/><use xlink:href="#5" y="2.171"/><use xlink:href="#6" y="4.342"/><use xlink:href="#7" y="6.513"/><use xlink:href="#8" y="8.684"/><use xlink:href="#11" y="10.855"/></svg><svg x="12980"><use xlink:href="#a"/><use xlink:href="#b" x="235.996" y="10.83"/><use xlink:href="#4"/><use xlink:href="#5" y="2.171"/><use xlink:href="#6" y="4.342"/><use xlink:href="#7" y="6.513"/><use xlink:href="#8" y="8.684"/><use xlink:href="#11" y="10.855"/></svg><svg x="13216"><use xlink:href="#a"/><use xlink:href="#b" x="235.996" y="10.83"/><use xlink:href="#4"/><use xlink:href="#5" y="2.171"/><use xlink:href="#6" y="4.342"/><use xlink:href="#7" y="6.513"/><use xlink:href="#8" y="8.684"/><use xlink:href="#11" y="10.855"/></svg><svg x="13452"><use xlink:href="#a"/><use xlink:href="#b" x="235.996" y="10.83"/><use xlink:href="#4"/><use xlink:href="#5" y="2.171"/><use xlink:href="#6" y="4.342"/><use xlink:href="#7" y="6.513"/><use xlink:href="#8" y="8.684"/><use xlink:href="#11" y="10.855"/></svg><svg x="13688"><use xlink:href="#a"/><use xlink:href="#b" x="235.996" y="10.83"/><use xlink:href="#4"/><use xlink:href="#5" y="2.171"/><use xlink:href="#6" y="4.342"/><use xlink:href="#7" y="6.513"/><use xlink:href="#8" y="8.684"/><use xlink:href="#11" y="10.855"/></svg><svg x="13924"><use xlink:href="#a"/><use xlink:href="#b" x="235.996" y="10.83"/><use xlink:href="#4"/><use xlink:href="#5" y="2.171"/><use xlink:href="#6" y="4.342"/><use xlink:href="#7" y="6.513"/><use xlink:href="#8" y="8.684"/><text y="12.525" class="f">3</text><text x="2.004" y="12.525" class="f">/</text><text x="4.008" y="12.525" class="f">5</text><text x="6.012" y="12.525" class="f">[--------------------------------------------------------------------------------------------------------------------------------&gt;______________________________________________________________________________________]</text><text x="224.448" y="12.525" class="f">60.00%</text><text x="231.462" y="12.525" class="f">1</text><text x="233.466" y="12.525" class="f">p/s</text></svg><svg x="14160"><use xlink:href="#a"/><use xlink:href="#b" x="235.996" y="10.83"/><use xlink:href="#4"/><use xlink:href="#5" y="2.171"/><use xlink:href="#6" y="4.342"/><use xlink:href="#7" y="6.513"/><use xlink:href="#8" y="8.684"/><text y="12.525" class="f">4</text><text x="2.004" y="12.525" class="f">/</text><text x="4.008" y="12.525" class="f">5</text><text x="6.012" y="12.525" class="f">[---------------------------------------------------------------------------------------------------------------------------------------------------------------------------&gt;___________________________________________]</text><text x="224.448" y="12.525" class="f">80.00%</text><text x="231.462" y="12.525" class="f">1</text><text x="233.466" y="12.525" class="f">p/s</text></svg><svg x="14396"><use xlink:href="#a"/><use xlink:href="#b" x="-.004" y="23.856"/><use xlink:href="#4"/><use xlink:href="#5" y="2.171"/><use xlink:href="#6" y="4.342"/><use xlink:href="#7" y="6.513"/><use xlink:href="#8" y="8.684"/><use xlink:href="#12" y="10.855"/><use xlink:href="#13" y="13.026"/><use xlink:href="#14" y="15.197"/><use xlink:href="#15" y="17.368"/><use xlink:href="#16" y="19.539"/><use xlink:href="#17" y="21.71"/></svg><svg x="14632"><use xlink:href="#a"/><use xlink:href="#b" x="-.004" y="23.856"/><use xlink:href="#4"/><use xlink:href="#5" y="2.171"/><use xlink:href="#6" y="4.342"/><use xlink:href="#7" y="6.513"/><use xlink:href="#8" y="8.684"/><use xlink:href="#12" y="10.855"/><use xlink:href="#13" y="13.026"/><use xlink:href="#14" y="15.197"/><use xlink:href="#15" y="17.368"/><use xlink:href="#16" y="19.539"/><use xlink:href="#17" y="21.71"/></svg><svg x="14868"><use xlink:href="#a"/><use xlink:href="#b" x="-.004" y="23.856"/><use xlink:href="#4"/><use xlink:href="#5" y="2.171"/><use xlink:href="#6" y="4.342"/><use xlink:href="#7" y="6.513"/><use xlink:href="#8" y="8.684"/><use xlink:href="#12" y="10.855"/><use xlink:href="#13" y="13.026"/><use xlink:href="#14" y="15.197"/><use xlink:href="#15" y="17.368"/><use xlink:href="#16" y="19.539"/><use xlink:href="#17" y="21.71"/></svg><svg x="15104"><use xlink:href="#a"/><use xlink:href="#b" x="57.996" y="23.856"/><use xlink:href="#4"/><use xlink:href="#5" y="2.171"/><use xlink:href="#6" y="4.342"/><use xlink:href="#7" y="6.513"/><use xlink:href="#8" y="8.684"/><use xlink:href="#12" y="10.855"/><use xlink:href="#13" y="13.026"/><use xlink:href="#14" y="15.197"/><use xlink:href="#15" y="17.368"/><use xlink:href="#16" y="19.539"/><use xlink:href="#17" y="21.71"/><use xlink:href="#1" y="23.881"/></svg><svg x="15340"><use xlink:href="#a"/><use xlink:href="#b" x="57.996" y="23.856"/><use xlink:href="#4"/><use xlink:href="#5" y="2.171"/><use xlink:href="#6" y="4.342"/><use xlink:href="#7" y="6.513"/><use xlink:href="#8" y="8.684"/><use xlink:href="#12" y="10.855"/><use xlink:href="#13" y="13.026"/><use xlink:href="#14" y="15.197"/><use xlink:href="#15" y="17.368"/><use xlink:href="#16" y="19.539"/><use xlink:href="#17" y="21.71"/><use xlink:href="#1" y="23.881"/></svg><svg x="15576"><use xlink:href="#a"/><use xlink:href="#b" x="57.996" y="23.856"/><use xlink:href="#4"/><use xlink:href="#5" y="2.171"/><use xlink:href="#6" y="4.342"/><use xlink:href="#7" y="6.513"/><use xlink:href="#8" y="8.684"/><use xlink:href="#12" y="10.855"/><use xlink:href="#13" y="13.026"/><use xlink:href="#14" y="15.197"/><use xlink:href="#15" y="17.368"/><use xlink:href="#16" y="19.539"/><use xlink:href="#17" y="21.71"/><use xlink:href="#1" y="23.881"/></svg><svg x="15812"><use xlink:href="#a"/><use xlink:href="#b" x="-.004" y="26.027"/><use xlink:href="#4"/><use xlink:href="#5" y="2.171"/><use xlink:href="#6" y="4.342"/><use xlink:href="#7" y="6.513"/><use xlink:href="#8" y="8.684"/><use xlink:href="#12" y="10.855"/><use xlink:href="#13" y="13.026"/><use xlink:href="#14" y="15.197"/><use xlink:href="#15" y="17.368"/><use xlink:href="#16" y="19.539"/><use xlink:href="#17" y="21.71"/><use xlink:href="#1" y="23.881"/></svg></svg></g></g></svg></svg>